<svg width="23" height="21" viewBox="0 0 23 21" fill="none" xmlns="http://www.w3.org/2000/svg">
<path d="M5.03646 12.9016L3.19062 11.0527L1.34375 12.9016M17.9635 8.13184L19.8094 9.98184L21.6562 8.13184" stroke="#555555" stroke-width="0.75" stroke-linecap="round" stroke-linejoin="round"/>
<path d="M19.8102 9.9821C19.8102 7.77377 18.9352 5.65814 17.3768 4.09668C16.6057 3.32404 15.6898 2.71104 14.6815 2.29279C13.6732 1.87453 12.5924 1.65922 11.5008 1.65918C10.4404 1.65834 9.38993 1.86243 8.40703 2.26022C7.3098 2.70015 6.31902 3.36905 5.50082 4.22228C4.68262 5.07551 4.05582 6.09344 3.66224 7.20814M3.19141 11.0519C3.19301 12.9837 3.86573 14.855 5.09453 16.3456C6.32199 17.8345 8.02975 18.8493 9.92428 19.2157C11.8188 19.582 13.7818 19.2769 15.4758 18.3529C17.1697 17.4271 18.4897 15.9418 19.2102 14.1508" stroke="#555555" stroke-width="1.5" stroke-linecap="round" stroke-linejoin="round"/>
<path d="M8.98047 12.5605C9.03469 13.1789 9.32887 13.7515 9.80003 14.1557C10.2712 14.5599 10.8819 14.7635 11.5013 14.723C13.5346 14.723 14.0221 13.5533 14.0221 12.5605C14.0221 11.5678 13.1815 10.5158 11.5013 10.5158C9.82109 10.5158 8.98047 9.85117 8.98047 8.497C9.00379 8.02776 9.16949 7.57675 9.45551 7.20402C9.74152 6.83128 10.1343 6.55451 10.5815 6.41055C10.8784 6.31471 11.1909 6.28034 11.5013 6.30951C12.1215 6.28255 12.7285 6.49429 13.1974 6.90118C13.6663 7.30807 13.9614 7.87916 14.0221 8.497M11.5013 15.9835V14.8887M11.5013 5.04492V6.30534" stroke="#555555" stroke-width="1.5" stroke-linecap="round" stroke-linejoin="round"/>
</svg>
