<svg width="20" height="20" viewBox="0 0 20 20" fill="none" xmlns="http://www.w3.org/2000/svg">
<g clip-path="url(#clip0_5307_3862)">
<path d="M5.83203 15L5.83203 12.5" stroke="#555555" stroke-width="1.5" stroke-linecap="round"/>
<path d="M10 15V10" stroke="#555555" stroke-width="1.5" stroke-linecap="round"/>
<path d="M14.168 15V7.5" stroke="#555555" stroke-width="1.5" stroke-linecap="round"/>
<path d="M18.3346 10.0003C18.3346 13.9287 18.3346 15.8929 17.1142 17.1133C15.8939 18.3337 13.9297 18.3337 10.0013 18.3337C6.07293 18.3337 4.10875 18.3337 2.88836 17.1133C1.66797 15.8929 1.66797 13.9287 1.66797 10.0003C1.66797 6.07195 1.66797 4.10777 2.88836 2.88738C4.10875 1.66699 6.07293 1.66699 10.0013 1.66699C13.9297 1.66699 15.8939 1.66699 17.1142 2.88738C17.9257 3.69883 18.1976 4.83912 18.2887 6.66699" stroke="#555555" stroke-width="1.5" stroke-linecap="round"/>
</g>
<defs>
<clipPath id="clip0_5307_3862">
<rect width="20" height="20" fill="white"/>
</clipPath>
</defs>
</svg>
