<svg width="129" height="27" viewBox="0 0 129 27" fill="none" xmlns="http://www.w3.org/2000/svg">
<path d="M23.3517 20.22C22.6184 20.22 21.905 20.1533 21.2117 20.02C20.5317 19.9 19.8984 19.7267 19.3117 19.5C18.725 19.26 18.2117 18.98 17.7717 18.66L18.6717 16.22C19.0984 16.5133 19.5584 16.7667 20.0517 16.98C20.545 17.1933 21.0717 17.36 21.6317 17.48C22.1917 17.5867 22.765 17.64 23.3517 17.64C24.325 17.64 25.0184 17.4933 25.4317 17.2C25.845 16.8933 26.0517 16.5133 26.0517 16.06C26.0517 15.8067 25.985 15.5867 25.8517 15.4C25.7317 15.2133 25.525 15.0533 25.2317 14.92C24.9517 14.7733 24.565 14.6533 24.0717 14.56L21.8117 14.08C20.5317 13.8133 19.5784 13.36 18.9517 12.72C18.3384 12.0667 18.0317 11.2133 18.0317 10.16C18.0317 9.25333 18.2717 8.46667 18.7517 7.8C19.245 7.13333 19.9184 6.61333 20.7717 6.24C21.6384 5.86667 22.6317 5.68 23.7517 5.68C24.405 5.68 25.0317 5.74667 25.6317 5.88C26.2317 6 26.785 6.18 27.2917 6.42C27.7984 6.66 28.2384 6.94667 28.6117 7.28L27.7117 9.56C27.1784 9.13333 26.5784 8.81333 25.9117 8.6C25.245 8.37333 24.5184 8.26 23.7317 8.26C23.1717 8.26 22.6917 8.33333 22.2917 8.48C21.905 8.62667 21.605 8.83333 21.3917 9.1C21.1917 9.36667 21.0917 9.67333 21.0917 10.02C21.0917 10.4067 21.2317 10.72 21.5117 10.96C21.7917 11.2 22.2784 11.3933 22.9717 11.54L25.2317 12.02C26.5384 12.3 27.5117 12.7533 28.1517 13.38C28.7917 13.9933 29.1117 14.8067 29.1117 15.82C29.1117 16.7 28.8717 17.4733 28.3917 18.14C27.925 18.7933 27.2584 19.3067 26.3917 19.68C25.5384 20.04 24.525 20.22 23.3517 20.22ZM35.5842 20.22C34.5309 20.22 33.6109 20.0133 32.8242 19.6C32.0509 19.1867 31.4509 18.5933 31.0242 17.82C30.5975 17.0467 30.3842 16.1333 30.3842 15.08C30.3842 14.0267 30.5975 13.12 31.0242 12.36C31.4509 11.6 32.0509 11.0133 32.8242 10.6C33.6109 10.1867 34.5309 9.98 35.5842 9.98C36.6375 9.98 37.5509 10.1867 38.3242 10.6C39.1109 11.0133 39.7175 11.6067 40.1442 12.38C40.5842 13.14 40.8042 14.04 40.8042 15.08C40.8042 16.1333 40.5842 17.0467 40.1442 17.82C39.7175 18.5933 39.1109 19.1867 38.3242 19.6C37.5509 20.0133 36.6375 20.22 35.5842 20.22ZM35.5842 17.96C36.2375 17.96 36.7642 17.7267 37.1642 17.26C37.5642 16.78 37.7642 16.0533 37.7642 15.08C37.7642 14.1067 37.5642 13.3933 37.1642 12.94C36.7642 12.4733 36.2375 12.24 35.5842 12.24C34.9442 12.24 34.4242 12.4733 34.0242 12.94C33.6242 13.3933 33.4242 14.1067 33.4242 15.08C33.4242 16.0533 33.6242 16.78 34.0242 17.26C34.4242 17.7267 34.9442 17.96 35.5842 17.96ZM43.3039 20V12.44H41.4439V10.18H44.1839L43.3039 10.98V10.36C43.3039 8.90667 43.6906 7.82 44.4639 7.1C45.2372 6.36667 46.4439 5.95333 48.0839 5.86L49.1839 5.78L49.3639 7.98L48.4239 8.04C47.9039 8.06667 47.4906 8.15333 47.1839 8.3C46.8772 8.43333 46.6572 8.62667 46.5239 8.88C46.3906 9.12 46.3239 9.44 46.3239 9.84V10.52L45.9439 10.18H48.8839V12.44H46.3239V20H43.3039ZM54.4147 20.22C53.0147 20.22 51.9747 19.88 51.2947 19.2C50.6147 18.52 50.2747 17.52 50.2747 16.2V12.44H48.4147V10.18H50.2747V7.3H53.2947V10.18H56.1947V12.44H53.2947V16.08C53.2947 16.64 53.4213 17.06 53.6747 17.34C53.9413 17.62 54.3613 17.76 54.9347 17.76C55.108 17.76 55.288 17.74 55.4747 17.7C55.6747 17.66 55.888 17.6067 56.1147 17.54L56.5547 19.74C56.2747 19.8867 55.9413 20 55.5547 20.08C55.168 20.1733 54.788 20.22 54.4147 20.22Z" fill="#202224"/>
<path d="M57.9406 20V5.9H61.0406V17.38H67.5606V20H57.9406ZM73.7678 20.22C72.7145 20.22 71.7945 20.0133 71.0078 19.6C70.2345 19.1867 69.6345 18.5933 69.2078 17.82C68.7811 17.0467 68.5678 16.1333 68.5678 15.08C68.5678 14.0267 68.7811 13.12 69.2078 12.36C69.6345 11.6 70.2345 11.0133 71.0078 10.6C71.7945 10.1867 72.7145 9.98 73.7678 9.98C74.8211 9.98 75.7345 10.1867 76.5078 10.6C77.2945 11.0133 77.9011 11.6067 78.3278 12.38C78.7678 13.14 78.9878 14.04 78.9878 15.08C78.9878 16.1333 78.7678 17.0467 78.3278 17.82C77.9011 18.5933 77.2945 19.1867 76.5078 19.6C75.7345 20.0133 74.8211 20.22 73.7678 20.22ZM73.7678 17.96C74.4211 17.96 74.9478 17.7267 75.3478 17.26C75.7478 16.78 75.9478 16.0533 75.9478 15.08C75.9478 14.1067 75.7478 13.3933 75.3478 12.94C74.9478 12.4733 74.4211 12.24 73.7678 12.24C73.1278 12.24 72.6078 12.4733 72.2078 12.94C71.8078 13.3933 71.6078 14.1067 71.6078 15.08C71.6078 16.0533 71.8078 16.78 72.2078 17.26C72.6078 17.7267 73.1278 17.96 73.7678 17.96ZM85.5451 23.82C84.6118 23.82 83.7318 23.72 82.9051 23.52C82.0785 23.32 81.3585 23.0067 80.7451 22.58L81.5651 20.52C81.9251 20.7333 82.3118 20.92 82.7251 21.08C83.1518 21.24 83.5851 21.36 84.0251 21.44C84.4651 21.52 84.8851 21.56 85.2851 21.56C86.1385 21.56 86.7785 21.3667 87.2051 20.98C87.6318 20.5933 87.8451 20 87.8451 19.2V17.68H88.0251C87.8251 18.2933 87.4118 18.7933 86.7851 19.18C86.1585 19.5667 85.4651 19.76 84.7051 19.76C83.8251 19.76 83.0585 19.56 82.4051 19.16C81.7518 18.7467 81.2451 18.1733 80.8851 17.44C80.5251 16.6933 80.3451 15.8333 80.3451 14.86C80.3451 13.8733 80.5251 13.02 80.8851 12.3C81.2451 11.5667 81.7518 11 82.4051 10.6C83.0585 10.1867 83.8251 9.98 84.7051 9.98C85.4918 9.98 86.1851 10.1733 86.7851 10.56C87.3985 10.9333 87.8051 11.4267 88.0051 12.04H87.8451V10.18H90.7851V18.86C90.7851 19.9533 90.5851 20.8667 90.1851 21.6C89.7851 22.3467 89.1918 22.9 88.4051 23.26C87.6318 23.6333 86.6785 23.82 85.5451 23.82ZM85.6051 17.5C86.2718 17.5 86.8051 17.2667 87.2051 16.8C87.6185 16.3333 87.8251 15.6867 87.8251 14.86C87.8251 14.0333 87.6185 13.3933 87.2051 12.94C86.8051 12.4733 86.2718 12.24 85.6051 12.24C84.9251 12.24 84.3851 12.4733 83.9851 12.94C83.5851 13.3933 83.3851 14.0333 83.3851 14.86C83.3851 15.6867 83.5851 16.3333 83.9851 16.8C84.3851 17.2667 84.9251 17.5 85.6051 17.5ZM97.8498 20.22C96.7965 20.22 95.8765 20.0133 95.0898 19.6C94.3165 19.1867 93.7165 18.5933 93.2898 17.82C92.8632 17.0467 92.6498 16.1333 92.6498 15.08C92.6498 14.0267 92.8632 13.12 93.2898 12.36C93.7165 11.6 94.3165 11.0133 95.0898 10.6C95.8765 10.1867 96.7965 9.98 97.8498 9.98C98.9032 9.98 99.8165 10.1867 100.59 10.6C101.377 11.0133 101.983 11.6067 102.41 12.38C102.85 13.14 103.07 14.04 103.07 15.08C103.07 16.1333 102.85 17.0467 102.41 17.82C101.983 18.5933 101.377 19.1867 100.59 19.6C99.8165 20.0133 98.9032 20.22 97.8498 20.22ZM97.8498 17.96C98.5032 17.96 99.0298 17.7267 99.4298 17.26C99.8298 16.78 100.03 16.0533 100.03 15.08C100.03 14.1067 99.8298 13.3933 99.4298 12.94C99.0298 12.4733 98.5032 12.24 97.8498 12.24C97.2098 12.24 96.6898 12.4733 96.2898 12.94C95.8898 13.3933 95.6898 14.1067 95.6898 15.08C95.6898 16.0533 95.8898 16.78 96.2898 17.26C96.6898 17.7267 97.2098 17.96 97.8498 17.96Z" fill="#01579B"/>
</svg>
