<svg width="22" height="22" viewBox="0 0 22 22" fill="none" xmlns="http://www.w3.org/2000/svg">
<path d="M14.2419 3.41105C13.6145 3.14269 13.3008 3.00851 12.9467 3.15233C12.8481 3.19237 12.722 3.27556 12.6465 3.35046C12.375 3.61945 12.375 4.01752 12.375 4.81366V9.62476H17.186C17.9822 9.62476 18.3803 9.62476 18.6492 9.35324C18.7242 9.27761 18.8073 9.15159 18.8474 9.05299C18.9912 8.69891 18.857 8.38523 18.5886 7.75786C17.7547 5.80827 16.1914 4.245 14.2419 3.41105Z" stroke="#555555" stroke-width="1.5" stroke-linejoin="round"/>
<path d="M2.75 10.9995C2.75 15.5558 6.44365 19.2495 11 19.2495C14.6069 19.2495 17.6732 16.9348 18.7944 13.7098C19.0084 13.0945 19.1153 12.7869 18.9631 12.4527C18.9204 12.359 18.8363 12.2408 18.7619 12.1697C18.4961 11.9162 18.1165 11.9162 17.3572 11.9162H11.7333C11.0459 11.9162 10.7022 11.9162 10.4612 11.7411C10.3834 11.6845 10.315 11.616 10.2584 11.5382C10.0833 11.2973 10.0833 10.9536 10.0833 10.2662V4.64225C10.0833 3.88294 10.0833 3.50328 9.82969 3.23761C9.75865 3.16313 9.64049 3.07909 9.54672 3.0364C9.2125 2.88412 8.90491 2.99107 8.28965 3.20499C5.06468 4.32627 2.75 7.39255 2.75 10.9995Z" stroke="#555555" stroke-width="1.5" stroke-linejoin="round"/>
</svg>
