<svg width="21" height="21" viewBox="0 0 21 21" fill="none" xmlns="http://www.w3.org/2000/svg">
<path d="M0 3.9375V5.25H12.4688V15.0938H8.42887C8.13619 13.9657 7.12162 13.125 5.90625 13.125C4.69088 13.125 3.67631 13.9657 3.38363 15.0938H2.625V11.8125H1.3125V16.4062H3.38363C3.67631 17.5343 4.69088 18.375 5.90625 18.375C7.12162 18.375 8.13619 17.5343 8.42887 16.4062H13.8836C14.1763 17.5343 15.1909 18.375 16.4062 18.375C17.6216 18.375 18.6362 17.5343 18.9289 16.4062H21V11.0539L20.9587 10.9508L19.6462 7.01334L19.5037 6.5625H13.7812V3.9375H0ZM0.65625 6.5625V7.875H6.5625V6.5625H0.65625ZM13.7812 7.875H18.5594L19.6875 11.2383V15.0938H18.9289C18.6362 13.9657 17.6216 13.125 16.4062 13.125C15.1909 13.125 14.1763 13.9657 13.8836 15.0938H13.7812V7.875ZM1.3125 9.1875V10.5H5.25V9.1875H1.3125ZM5.90625 14.4375C6.63928 14.4375 7.21875 15.017 7.21875 15.75C7.21875 16.483 6.63928 17.0625 5.90625 17.0625C5.17322 17.0625 4.59375 16.483 4.59375 15.75C4.59375 15.017 5.17322 14.4375 5.90625 14.4375ZM16.4062 14.4375C17.1393 14.4375 17.7188 15.017 17.7188 15.75C17.7188 16.483 17.1393 17.0625 16.4062 17.0625C15.6732 17.0625 15.0938 16.483 15.0938 15.75C15.0938 15.017 15.6732 14.4375 16.4062 14.4375Z" fill="#555555"/>
</svg>
