<svg width="19" height="19" viewBox="0 0 19 19" fill="none" xmlns="http://www.w3.org/2000/svg">
<g clip-path="url(#clip0_5361_5466)">
<path d="M11.5368 7.46429H15.6083C16.3281 7.46429 17.0185 7.75025 17.5275 8.25928C18.0366 8.76831 18.3225 9.4587 18.3225 10.1786V15.6071H16.2868M2.03683 15.6071H0.679688V6.10714C0.679688 5.74721 0.822672 5.40201 1.07719 5.1475C1.3317 4.89298 1.67689 4.75 2.03683 4.75H10.1797C10.5396 4.75 10.8848 4.89298 11.1393 5.1475C11.3938 5.40201 11.5368 5.74721 11.5368 6.10714V15.6071M10.8583 15.6071H7.4654" stroke="#555555" stroke-width="1.5" stroke-linecap="round" stroke-linejoin="round"/>
<path d="M13.9107 18.3213C13.2808 18.3213 12.6767 18.0711 12.2313 17.6257C11.7859 17.1803 11.5357 16.5762 11.5357 15.9463C11.5357 15.3164 11.7859 14.7123 12.2313 14.2669C12.6767 13.8215 13.2808 13.5713 13.9107 13.5713C14.5406 13.5713 15.1447 13.8215 15.5901 14.2669C16.0355 14.7123 16.2857 15.3164 16.2857 15.9463C16.2857 16.5762 16.0355 17.1803 15.5901 17.6257C15.1447 18.0711 14.5406 18.3213 13.9107 18.3213ZM4.75 18.3213C4.12011 18.3213 3.51602 18.0711 3.07062 17.6257C2.62522 17.1803 2.375 16.5762 2.375 15.9463C2.375 15.3164 2.62522 14.7123 3.07062 14.2669C3.51602 13.8215 4.12011 13.5713 4.75 13.5713C5.37989 13.5713 5.98398 13.8215 6.42938 14.2669C6.87478 14.7123 7.125 15.3164 7.125 15.9463C7.125 16.5762 6.87478 17.1803 6.42938 17.6257C5.98398 18.0711 5.37989 18.3213 4.75 18.3213Z" stroke="#555555" stroke-width="1.5" stroke-linecap="round" stroke-linejoin="round"/>
</g>
<defs>
<clipPath id="clip0_5361_5466">
<rect width="19" height="19" fill="white"/>
</clipPath>
</defs>
</svg>
