<svg width="20" height="20" viewBox="0 0 20 20" fill="none" xmlns="http://www.w3.org/2000/svg">
<path fill-rule="evenodd" clip-rule="evenodd" d="M7.5013 1.04199C5.31518 1.04199 3.54297 2.8142 3.54297 5.00033C3.54297 7.18645 5.31518 8.95866 7.5013 8.95866C9.68743 8.95866 11.4596 7.18645 11.4596 5.00033C11.4596 2.8142 9.68743 1.04199 7.5013 1.04199ZM4.79297 5.00033C4.79297 3.50455 6.00553 2.29199 7.5013 2.29199C8.99707 2.29199 10.2096 3.50455 10.2096 5.00033C10.2096 6.4961 8.99707 7.70866 7.5013 7.70866C6.00553 7.70866 4.79297 6.4961 4.79297 5.00033Z" fill="#555555"/>
<path d="M12.5013 1.87533C12.1561 1.87533 11.8763 2.15515 11.8763 2.50033C11.8763 2.8455 12.1561 3.12533 12.5013 3.12533C13.5368 3.12533 14.3763 3.96479 14.3763 5.00033C14.3763 6.03586 13.5368 6.87533 12.5013 6.87533C12.1561 6.87533 11.8763 7.15515 11.8763 7.50033C11.8763 7.8455 12.1561 8.12533 12.5013 8.12533C14.2272 8.12533 15.6263 6.72622 15.6263 5.00033C15.6263 3.27444 14.2272 1.87533 12.5013 1.87533Z" fill="#555555"/>
<path fill-rule="evenodd" clip-rule="evenodd" d="M3.06643 11.2673C4.23257 10.601 5.80186 10.2087 7.5013 10.2087C9.20075 10.2087 10.77 10.601 11.9362 11.2673C13.0846 11.9236 13.9596 12.9254 13.9596 14.167C13.9596 15.4085 13.0846 16.4104 11.9362 17.0667C10.77 17.733 9.20075 18.1253 7.5013 18.1253C5.80186 18.1253 4.23257 17.733 3.06643 17.0667C1.91797 16.4104 1.04297 15.4085 1.04297 14.167C1.04297 12.9254 1.91797 11.9236 3.06643 11.2673ZM3.6866 12.3526C2.72381 12.9028 2.29297 13.5676 2.29297 14.167C2.29297 14.7664 2.72381 15.4312 3.6866 15.9814C4.63171 16.5214 5.97909 16.8753 7.5013 16.8753C9.02352 16.8753 10.3709 16.5214 11.316 15.9814C12.2788 15.4312 12.7096 14.7664 12.7096 14.167C12.7096 13.5676 12.2788 12.9028 11.316 12.3526C10.3709 11.8126 9.02352 11.4587 7.5013 11.4587C5.97909 11.4587 4.63171 11.8126 3.6866 12.3526Z" fill="#555555"/>
<path d="M15.1352 11.0565C14.798 10.9826 14.4647 11.1959 14.3908 11.5331C14.3169 11.8703 14.5303 12.2035 14.8674 12.2775C15.5277 12.4223 16.0554 12.671 16.4037 12.956C16.7524 13.2414 16.8763 13.5201 16.8763 13.7503C16.8763 13.9592 16.7758 14.2045 16.4987 14.4619C16.2196 14.7212 15.7909 14.9607 15.2378 15.1272C14.9073 15.2267 14.72 15.5754 14.8195 15.9059C14.919 16.2364 15.2676 16.4237 15.5982 16.3241C16.2836 16.1177 16.8965 15.7985 17.3495 15.3777C17.8044 14.9551 18.1263 14.3992 18.1263 13.7503C18.1263 13.0297 17.7311 12.427 17.1953 11.9886C16.6591 11.5498 15.9367 11.2323 15.1352 11.0565Z" fill="#555555"/>
<path fill-rule="evenodd" clip-rule="evenodd" d="M7.5013 1.04199C5.31518 1.04199 3.54297 2.8142 3.54297 5.00033C3.54297 7.18645 5.31518 8.95866 7.5013 8.95866C9.68743 8.95866 11.4596 7.18645 11.4596 5.00033C11.4596 2.8142 9.68743 1.04199 7.5013 1.04199ZM4.79297 5.00033C4.79297 3.50455 6.00553 2.29199 7.5013 2.29199C8.99707 2.29199 10.2096 3.50455 10.2096 5.00033C10.2096 6.4961 8.99707 7.70866 7.5013 7.70866C6.00553 7.70866 4.79297 6.4961 4.79297 5.00033Z" stroke="#555555" stroke-width="0.5" stroke-linecap="round"/>
<path d="M12.5013 1.87533C12.1561 1.87533 11.8763 2.15515 11.8763 2.50033C11.8763 2.8455 12.1561 3.12533 12.5013 3.12533C13.5368 3.12533 14.3763 3.96479 14.3763 5.00033C14.3763 6.03586 13.5368 6.87533 12.5013 6.87533C12.1561 6.87533 11.8763 7.15515 11.8763 7.50033C11.8763 7.8455 12.1561 8.12533 12.5013 8.12533C14.2272 8.12533 15.6263 6.72622 15.6263 5.00033C15.6263 3.27444 14.2272 1.87533 12.5013 1.87533Z" stroke="#555555" stroke-width="0.5" stroke-linecap="round"/>
<path fill-rule="evenodd" clip-rule="evenodd" d="M3.06643 11.2673C4.23257 10.601 5.80186 10.2087 7.5013 10.2087C9.20075 10.2087 10.77 10.601 11.9362 11.2673C13.0846 11.9236 13.9596 12.9254 13.9596 14.167C13.9596 15.4085 13.0846 16.4104 11.9362 17.0667C10.77 17.733 9.20075 18.1253 7.5013 18.1253C5.80186 18.1253 4.23257 17.733 3.06643 17.0667C1.91797 16.4104 1.04297 15.4085 1.04297 14.167C1.04297 12.9254 1.91797 11.9236 3.06643 11.2673ZM3.6866 12.3526C2.72381 12.9028 2.29297 13.5676 2.29297 14.167C2.29297 14.7664 2.72381 15.4312 3.6866 15.9814C4.63171 16.5214 5.97909 16.8753 7.5013 16.8753C9.02352 16.8753 10.3709 16.5214 11.316 15.9814C12.2788 15.4312 12.7096 14.7664 12.7096 14.167C12.7096 13.5676 12.2788 12.9028 11.316 12.3526C10.3709 11.8126 9.02352 11.4587 7.5013 11.4587C5.97909 11.4587 4.63171 11.8126 3.6866 12.3526Z" stroke="#555555" stroke-width="0.5" stroke-linecap="round"/>
<path d="M15.1352 11.0565C14.798 10.9826 14.4647 11.1959 14.3908 11.5331C14.3169 11.8703 14.5303 12.2035 14.8674 12.2775C15.5277 12.4223 16.0554 12.671 16.4037 12.956C16.7524 13.2414 16.8763 13.5201 16.8763 13.7503C16.8763 13.9592 16.7758 14.2045 16.4987 14.4619C16.2196 14.7212 15.7909 14.9607 15.2378 15.1272C14.9073 15.2267 14.72 15.5754 14.8195 15.9059C14.919 16.2364 15.2676 16.4237 15.5982 16.3241C16.2836 16.1177 16.8965 15.7985 17.3495 15.3777C17.8044 14.9551 18.1263 14.3992 18.1263 13.7503C18.1263 13.0297 17.7311 12.427 17.1953 11.9886C16.6591 11.5498 15.9367 11.2323 15.1352 11.0565Z" stroke="#555555" stroke-width="0.5" stroke-linecap="round"/>
</svg>
