<svg width="17" height="22" viewBox="0 0 17 22" fill="none" xmlns="http://www.w3.org/2000/svg">
<path fill-rule="evenodd" clip-rule="evenodd" d="M8.5 1C5.96127 1 3.90323 3.07478 3.90323 5.63415C3.90323 8.19351 5.96127 10.2683 8.5 10.2683C11.0387 10.2683 13.0968 8.19351 13.0968 5.63415C13.0968 3.07478 11.0387 1 8.5 1ZM5.35484 5.63415C5.35484 3.883 6.76297 2.46341 8.5 2.46341C10.237 2.46341 11.6452 3.883 11.6452 5.63415C11.6452 7.38529 10.237 8.80488 8.5 8.80488C6.76297 8.80488 5.35484 7.38529 5.35484 5.63415Z" fill="#555555"/>
<path fill-rule="evenodd" clip-rule="evenodd" d="M8.5 11.7317C6.52645 11.7317 4.70405 12.191 3.34982 12.9711C2.01613 13.7394 1 14.9123 1 16.3659C1 17.8194 2.01613 18.9923 3.34982 19.7606C4.70405 20.5407 6.52645 21 8.5 21C10.4735 21 12.296 20.5407 13.6502 19.7606C14.9839 18.9923 16 17.8194 16 16.3659C16 14.9123 14.9839 13.7394 13.6502 12.9711C12.296 12.191 10.4735 11.7317 8.5 11.7317ZM2.45161 16.3659C2.45161 15.6641 2.95194 14.8858 4.07002 14.2417C5.16757 13.6094 6.73227 13.1951 8.5 13.1951C10.2677 13.1951 11.8324 13.6094 12.93 14.2417C14.0481 14.8858 14.5484 15.6641 14.5484 16.3659C14.5484 17.0676 14.0481 17.8459 12.93 18.49C11.8324 19.1223 10.2677 19.5366 8.5 19.5366C6.73227 19.5366 5.16757 19.1223 4.07002 18.49C2.95194 17.8459 2.45161 17.0676 2.45161 16.3659Z" fill="#555555"/>
<path fill-rule="evenodd" clip-rule="evenodd" d="M8.5 1C5.96127 1 3.90323 3.07478 3.90323 5.63415C3.90323 8.19351 5.96127 10.2683 8.5 10.2683C11.0387 10.2683 13.0968 8.19351 13.0968 5.63415C13.0968 3.07478 11.0387 1 8.5 1ZM5.35484 5.63415C5.35484 3.883 6.76297 2.46341 8.5 2.46341C10.237 2.46341 11.6452 3.883 11.6452 5.63415C11.6452 7.38529 10.237 8.80488 8.5 8.80488C6.76297 8.80488 5.35484 7.38529 5.35484 5.63415Z" stroke="#555555" stroke-width="0.5"/>
<path fill-rule="evenodd" clip-rule="evenodd" d="M8.5 11.7317C6.52645 11.7317 4.70405 12.191 3.34982 12.9711C2.01613 13.7394 1 14.9123 1 16.3659C1 17.8194 2.01613 18.9923 3.34982 19.7606C4.70405 20.5407 6.52645 21 8.5 21C10.4735 21 12.296 20.5407 13.6502 19.7606C14.9839 18.9923 16 17.8194 16 16.3659C16 14.9123 14.9839 13.7394 13.6502 12.9711C12.296 12.191 10.4735 11.7317 8.5 11.7317ZM2.45161 16.3659C2.45161 15.6641 2.95194 14.8858 4.07002 14.2417C5.16757 13.6094 6.73227 13.1951 8.5 13.1951C10.2677 13.1951 11.8324 13.6094 12.93 14.2417C14.0481 14.8858 14.5484 15.6641 14.5484 16.3659C14.5484 17.0676 14.0481 17.8459 12.93 18.49C11.8324 19.1223 10.2677 19.5366 8.5 19.5366C6.73227 19.5366 5.16757 19.1223 4.07002 18.49C2.95194 17.8459 2.45161 17.0676 2.45161 16.3659Z" stroke="#555555" stroke-width="0.5"/>
</svg>
